<svg xmlns="http://www.w3.org/2000/svg" width="104" height="18" style=""><rect id="backgroundrect" width="100%" height="100%" x="0" y="0" fill="none" stroke="none" class="" style=""/>
  
<g class="currentLayer" style=""><title>Layer 1</title><g fill="none" fill-rule="evenodd" id="svg_1" class="">
    <path d="M11.949997615814212,4.687001101970674 a4.07,4.07 0 0 0 0.3900000000000005,-1.6300000000000003 c0,-0.4200000000000003 -0.1,-0.77 -0.28,-1.06 a0.92,0.92 0 0 0 -0.8300000000000006,-0.4300000000000003 c-0.16000000000000028,0 -0.3000000000000003,0.020000000000000028 -0.4300000000000003,0.07 s-0.25,0.13 -0.37000000000000044,0.25 s-0.25,0.3000000000000003 -0.37000000000000044,0.5 c-0.13,0.22000000000000025 -0.28,0.5 -0.44000000000000045,0.8600000000000009 l-4.12,9.2 a46.5,46.5 0 0 0 -0.8200000000000006,1.9500000000000002 c-0.16000000000000028,0.4200000000000003 -0.2400000000000002,0.7100000000000006 -0.2400000000000002,0.8700000000000009 c0,0.3900000000000005 0.16000000000000028,0.5800000000000006 0.4800000000000003,0.5800000000000006 c0.2900000000000003,0 0.6000000000000006,-0.1 0.9500000000000006,-0.31000000000000044 a7.59,7.59 0 0 0 2.44,-2.66 l3.64,-8.19 zm2.27,11.12 a11.47,11.47 0 0 1 -3.37,1.81 c-0.7500000000000009,0.26 -1.45,0.3900000000000005 -2.09,0.3900000000000005 c-1.06,0 -1.58,-0.56 -1.58,-1.6800000000000006 a3.2,3.2 0 0 1 0.040000000000000056,-0.53 a7.53,7.53 0 0 1 -2.42,1.6500000000000008 c-0.9,0.37000000000000044 -1.8800000000000003,0.56 -2.95,0.56 c-1.23,0 -1.85,-0.5800000000000006 -1.85,-1.75 c0,-0.13 0.020000000000000028,-0.27 0.05000000000000008,-0.4300000000000003 c0.030000000000000054,-0.16000000000000028 0.1,-0.3900000000000005 0.19000000000000025,-0.6800000000000012 c0.1,-0.28 0.2400000000000002,-0.6700000000000012 0.44000000000000045,-1.15 l0.8,-1.87 l3.8200000000000003,-8.57 a6.06,6.06 0 0 1 2.1,-2.7 A6,6 0 0 1 10.77999761581421,0.007001101970671719 c0.8600000000000009,0 1.53,0.17 2.01,0.5 c0.4800000000000003,0.3400000000000006 0.8,0.7000000000000006 0.9400000000000006,1.08 l0.650000000000001,-1.44 h3.5700000000000003 L11.229997615814213,15.207001101970672 a0.45,0.45 0 0 0 -0.020000000000000028,0.15000000000000022 c0,0.1 0.09000000000000018,0.16000000000000028 0.26,0.16000000000000028 c0.2900000000000003,0 0.6200000000000009,-0.08000000000000011 1,-0.25 a7.54,7.54 0 0 0 2.12,-1.51 l0.3000000000000003,-0.27 a8.07,8.07 0 0 0 -0.6700000000000012,2.33 zm4.57,-3.22 a2.7,2.7 0 0 0 1.8,-0.92 a2.9,2.9 0 0 0 0.7200000000000006,-1.96 c0,-0.21000000000000021 -0.15000000000000022,-0.3200000000000005 -0.45,-0.3200000000000005 a0.8,0.8 0 0 0 -0.52,0.18000000000000022 c-0.15000000000000022,0.12000000000000002 -0.3200000000000005,0.38000000000000045 -0.5,0.760000000000001 l-1.05,2.26 zm6.2,2.6900000000000004 s-0.6000000000000006,0.5 -0.9400000000000006,0.7400000000000009 A9.2,9.2 0 0 1 18.16999761581421,18.007001101970673 c-0.640000000000001,0 -1.2,-0.020000000000000028 -1.7000000000000002,-0.06000000000000009 c-0.4800000000000003,-0.040000000000000056 -0.9,-0.13 -1.23,-0.28 a1.7000000000000002,1.7000000000000002 0 0 1 -0.77,-0.6000000000000006 a1.9,1.9 0 0 1 -0.26,-1.08 c0,-0.650000000000001 0.25,-1.55 0.7400000000000009,-2.68 l0.890000000000001,-2 c0.2900000000000003,-0.650000000000001 0.6000000000000006,-1.2 0.9400000000000006,-1.6600000000000001 a4.37,4.37 0 0 1 2.77,-1.7400000000000002 c0.6000000000000006,-0.13 1.3,-0.2 2.12,-0.2 c0.6300000000000009,0 1.1400000000000001,0.040000000000000056 1.55,0.11000000000000011 a3,3 0 0 1 0.9500000000000006,0.3000000000000003 c0.22000000000000025,0.13 0.38000000000000045,0.2900000000000003 0.4700000000000003,0.4800000000000003 c0.08000000000000011,0.2 0.13,0.4100000000000003 0.13,0.650000000000001 c0,0.4 -0.06000000000000009,0.8600000000000009 -0.18000000000000022,1.37 c-0.12000000000000002,0.51 -0.37000000000000044,1 -0.7300000000000006,1.49 c-0.26,0.3300000000000005 -0.6000000000000006,0.6000000000000006 -1.05,0.8200000000000006 c-0.44000000000000045,0.22000000000000025 -0.92,0.4 -1.45,0.52 a13.620000000000001,13.620000000000001 0 0 1 -3.07,0.4 c-0.2,0.4200000000000003 -0.3400000000000006,0.78 -0.45,1.08 c-0.1,0.3000000000000003 -0.15000000000000022,0.54 -0.15000000000000022,0.7300000000000006 c0,0.4300000000000003 0.3000000000000003,0.650000000000001 0.890000000000001,0.650000000000001 a9.56,9.56 0 0 0 3.9699999999999998,-1 l0.6700000000000012,-0.38000000000000045 l1.7600000000000002,0.3500000000000003 zm9.55,0.6300000000000009 s-0.6700000000000012,0.4800000000000003 -1.05,0.7000000000000006 c-0.7000000000000006,0.4 -1.42,0.7400000000000009 -2.18,1 a6.3,6.3 0 0 1 -2.1,0.4 c-0.5800000000000006,0 -1.01,-0.14 -1.3,-0.4300000000000003 a1.62,1.62 0 0 1 -0.4300000000000003,-1.2 c0,-0.21000000000000021 0.040000000000000056,-0.46 0.13,-0.760000000000001 s0.2,-0.6000000000000006 0.3400000000000006,-0.93 a18.08,18.08 0 0 1 0.9500000000000006,-1.98 c0.3300000000000005,-0.6300000000000009 0.55,-1.07 0.640000000000001,-1.34 c0.1,-0.26 0.15000000000000022,-0.4300000000000003 0.15000000000000022,-0.51 c0,-0.11000000000000011 -0.15000000000000022,-0.23 -0.46,-0.3600000000000003 l-0.5,-0.22000000000000025 a9.72,9.72 0 0 1 -1.87,3.1 c-0.4700000000000003,0.53 -0.8800000000000009,0.97 -1.24,1.32 l-0.640000000000001,0.5800000000000006 l-1.7600000000000002,-0.3400000000000006 l0.18000000000000022,-0.27 c0.6700000000000012,-1.1600000000000001 1.26,-2.4 1.7600000000000002,-3.7 c0.5,-1.29 0.98,-2.58 1.4300000000000002,-3.88 l5.86,3.31 c0.2400000000000002,0.15000000000000022 0.4100000000000003,0.3000000000000003 0.51,0.46 c0.1,0.16000000000000028 0.16000000000000028,0.31000000000000044 0.16000000000000028,0.45 c0,0.2 -0.07,0.45 -0.22000000000000025,0.760000000000001 c-0.14,0.31000000000000044 -0.3000000000000003,0.650000000000001 -0.4900000000000003,1 c-0.18000000000000022,0.37000000000000044 -0.3500000000000003,0.7300000000000006 -0.4900000000000003,1.09 c-0.14,0.3600000000000003 -0.22000000000000025,0.6700000000000012 -0.22000000000000025,0.92 c0,0.23 0.13,0.3400000000000006 0.3900000000000005,0.3400000000000006 c0.27,0 0.5900000000000006,-0.09000000000000018 0.9500000000000006,-0.25 a6.91,6.91 0 0 0 2.05,-1.47 c0.13,-0.13 0.3400000000000006,-0.3900000000000005 0.3400000000000006,-0.3900000000000005 l-0.890000000000001,2.6 zm20.33,-0.05000000000000008 s-1,0.7000000000000006 -1.55,0.99 a10.45,10.45 0 0 1 -4.74,1.1600000000000001 c-0.4800000000000003,0 -0.93,-0.08000000000000011 -1.34,-0.23 a3.3,3.3 0 0 1 -1.05,-0.6200000000000009 a2.8600000000000003,2.8600000000000003 0 0 1 -0.9500000000000006,-2.13 l1.3,-0.8600000000000009 c0.06000000000000009,0.3200000000000005 0.18000000000000022,0.6300000000000009 0.3600000000000003,0.92 c0.17,0.3000000000000003 0.4200000000000003,0.45 0.7400000000000009,0.45 c0.27,0 0.53,-0.07 0.77,-0.22000000000000025 c0.2400000000000002,-0.14 0.44000000000000045,-0.3300000000000005 0.6100000000000009,-0.55 a2.72,2.72 0 0 0 0.54,-1.58 c0,-0.4700000000000003 -0.05000000000000008,-0.9 -0.14,-1.3 a3.7,3.7 0 0 0 -0.4800000000000003,-1.13 c-1,0.640000000000001 -2.42,0.9600000000000006 -4.28,0.9600000000000006 c-0.54,1.4 -1.07,2.5 -1.58,3.34 a7.1,7.1 0 0 1 -1.6,1.9 c-0.55,0.4300000000000003 -1.1400000000000001,0.7100000000000006 -1.7600000000000002,0.8500000000000006 c-0.6200000000000009,0.13 -1.3,0.2 -2.04,0.2 c-1.17,0 -1.98,-0.17 -2.45,-0.52 c-0.46,-0.3400000000000006 -0.7000000000000006,-0.8 -0.7000000000000006,-1.4 l0.010000000000000014,-0.18000000000000022 l0.890000000000001,-2.6 l0.81,-1.7600000000000002 c0.3400000000000006,-0.7200000000000006 0.6800000000000012,-1.32 1.04,-1.82 s0.7400000000000009,-0.9 1.13,-1.19 c0.4,-0.3000000000000003 0.8,-0.5 1.23,-0.6300000000000009 a5.18,5.18 0 0 1 2.31,-0.12000000000000002 c0.5800000000000006,-0.53 1.29,-0.8 2.14,-0.8 c0.54,0 0.9400000000000006,0.12000000000000002 1.2,0.3400000000000006 c0.25,0.22000000000000025 0.38000000000000045,0.54 0.38000000000000045,0.9600000000000006 c0,0.45 -0.14,0.98 -0.4300000000000003,1.6 l0.4200000000000003,0.1 l0.3500000000000003,0.030000000000000054 c0.2900000000000003,0 0.6800000000000012,-0.06000000000000009 1.17,-0.18000000000000022 c0.5,-0.12000000000000002 0.9600000000000006,-0.3000000000000003 1.37,-0.54 a3.66,3.66 0 0 1 0.16000000000000028,-2.04 a3.7,3.7 0 0 1 1.6300000000000003,-1.97 c0.38000000000000045,-0.2 0.79,-0.31000000000000044 1.24,-0.31000000000000044 c0.4100000000000003,0 0.7500000000000009,0.08000000000000011 1,0.25 c0.26,0.17 0.3900000000000005,0.4800000000000003 0.3900000000000005,0.9500000000000006 a1.96,1.96 0 0 1 -0.28,1.07 c-0.12000000000000002,0.21000000000000021 -0.2900000000000003,0.46 -0.51,0.7300000000000006 c-0.23,0.27 -0.52,0.5700000000000006 -0.9,0.91 c1.3,1.6300000000000003 1.9500000000000002,2.9 1.9500000000000002,3.8 c0,0.8 -0.2,1.51 -0.5900000000000006,2.1 a3.7,3.7 0 0 1 -1.86,1.37 a6.8,6.8 0 0 0 1.36,-0.37000000000000044 a9.61,9.61 0 0 0 2.8,-1.6800000000000006 c0.2,-0.18000000000000022 0.54,-0.5700000000000006 0.54,-0.56 c-0.17,0.4 -0.5700000000000006,1.44 -0.6100000000000009,2.31 zm-13.37,-5.1 a0.8200000000000006,0.8200000000000006 0 0 1 -0.3500000000000003,-0.4200000000000003 a1.81,1.81 0 0 1 -0.08000000000000011,-0.92 c-0.18000000000000022,0.08000000000000011 -0.3300000000000005,0.2 -0.44000000000000045,0.3500000000000003 c-0.11000000000000011,0.15000000000000022 -0.2400000000000002,0.4 -0.38000000000000045,0.7500000000000009 l-2.21,5.04 a1.2,1.2 0 0 0 -0.12000000000000002,0.4800000000000003 c0,0.3000000000000003 0.14,0.46 0.4,0.46 a1.13,1.13 0 0 0 0.9400000000000006,-0.7000000000000006 l2.24,-5.04 zm2.35,-1.08 a1.46,1.46 0 0 0 0.19000000000000025,-0.7000000000000006 a0.9,0.9 0 0 0 -0.08000000000000011,-0.3900000000000005 a0.3300000000000005,0.3300000000000005 0 0 0 -0.3000000000000003,-0.16000000000000028 c-0.3900000000000005,0 -0.5800000000000006,0.19000000000000025 -0.5800000000000006,0.56 c0,0.46 0.26,0.7000000000000006 0.77,0.7000000000000006 zm6.79,-2.04 c0.3400000000000006,-0.22000000000000025 0.54,-0.4100000000000003 0.6200000000000009,-0.5700000000000006 c0.08000000000000011,-0.16000000000000028 0.12000000000000002,-0.3000000000000003 0.12000000000000002,-0.44000000000000045 c0,-0.16000000000000028 -0.07,-0.2400000000000002 -0.21000000000000021,-0.2400000000000002 c-0.3900000000000005,0 -0.5800000000000006,0.2400000000000002 -0.5800000000000006,0.7200000000000006 a4.43,4.43 0 0 0 0.05000000000000008,0.53 zm11.23,2.4 a0.3000000000000003,0.3000000000000003 0 0 0 0.05000000000000008,-0.15000000000000022 v-0.16000000000000028 a0.37000000000000044,0.37000000000000044 0 0 0 -0.08000000000000011,-0.23 c-0.06000000000000009,-0.07 -0.17,-0.1 -0.3300000000000005,-0.1 a0.79,0.79 0 0 0 -0.56,0.19000000000000025 a1.5,1.5 0 0 0 -0.37000000000000044,0.6000000000000006 l-2.19,4.92 c-0.14,0.28 -0.21000000000000021,0.56 -0.21000000000000021,0.81 c0,0.26 0.1,0.3900000000000005 0.3300000000000005,0.3900000000000005 c0.37000000000000044,0 0.7200000000000006,-0.3600000000000003 1.06,-1.06 l2.3,-5.2 zm4.32,6 a11,11 0 0 1 -3.12,1.6 c-0.7500000000000009,0.25 -1.44,0.37000000000000044 -2.06,0.37000000000000044 a0.92,0.92 0 0 1 -0.6900000000000014,-0.25 a1.2,1.2 0 0 1 -0.3200000000000005,-0.6600000000000011 a3.8,3.8 0 0 1 -1.1400000000000001,0.6700000000000012 c-0.4200000000000003,0.16000000000000028 -1,0.2400000000000002 -1.7400000000000002,0.2400000000000002 c-0.6600000000000011,0 -1.2,-0.16000000000000028 -1.62,-0.5 c-0.4200000000000003,-0.3200000000000005 -0.640000000000001,-0.8200000000000006 -0.640000000000001,-1.5 c0,-0.4 0.1,-0.93 0.3000000000000003,-1.55 a17.87,17.87 0 0 1 2.22,-4.36 c0.4300000000000003,-0.6100000000000009 0.8700000000000009,-1.1 1.3,-1.45 a3.95,3.95 0 0 1 2.64,-0.9400000000000006 c0.6600000000000011,0 1.12,0.1 1.4,0.28 c0.28,0.18000000000000022 0.51,0.4100000000000003 0.6900000000000014,0.6800000000000012 l0.2400000000000002,-0.55 h2.85 l-2.52,5.6400000000000015 l-0.37000000000000044,0.8500000000000006 c-0.07,0.17 -0.1,0.3200000000000005 -0.1,0.45 c0,0.2400000000000002 0.13,0.3600000000000003 0.4,0.3600000000000003 s0.6000000000000006,-0.09000000000000018 0.9600000000000006,-0.27 a6.9,6.9 0 0 0 2.04,-1.47 c0.2900000000000003,-0.3000000000000003 0.4900000000000003,-0.5700000000000006 0.6000000000000006,-0.8 l-0.6600000000000011,1.5 c-0.3600000000000003,0.8200000000000006 -0.6600000000000011,1.3900000000000001 -0.6600000000000011,1.6600000000000001 zm7.2,-0.25 a12.27,12.27 0 0 1 -3.4,1.83 c-0.7500000000000009,0.26 -1.45,0.3900000000000005 -2.1,0.3900000000000005 c-0.5,0 -0.93,-0.14 -1.25,-0.4200000000000003 c-0.3300000000000005,-0.28 -0.5,-0.6600000000000011 -0.5,-1.1400000000000001 c0,-0.38000000000000045 0.1,-0.78 0.3200000000000005,-1.2 l3.5700000000000003,-8.02 l3.03,1.6600000000000001 l-2.55,5.74 c-0.08000000000000011,0.19000000000000025 -0.12000000000000002,0.3300000000000005 -0.12000000000000002,0.4300000000000003 c0,0.2400000000000002 0.14,0.3600000000000003 0.4100000000000003,0.3600000000000003 c0.27,0 0.6000000000000006,-0.09000000000000018 0.9600000000000006,-0.27 a6.9,6.9 0 0 0 2.52,-2.07 l-0.56,1.25 c-0.22000000000000025,0.4800000000000003 -0.3300000000000005,0.760000000000001 -0.3300000000000005,1.46 zm2.14,-11.96 c0,0.3000000000000003 -0.1,0.5800000000000006 -0.3000000000000003,0.8200000000000006 c-0.2,0.25 -0.45,0.46 -0.7500000000000009,0.6300000000000009 a4.2,4.2 0 0 1 -1.9500000000000002,0.54 c-0.4200000000000003,0 -0.79,-0.1 -1.12,-0.28 c-0.3300000000000005,-0.18000000000000022 -0.4900000000000003,-0.4300000000000003 -0.4900000000000003,-0.7500000000000009 c0,-0.26 0.09000000000000018,-0.51 0.26,-0.760000000000001 c0.18000000000000022,-0.25 0.4100000000000003,-0.4700000000000003 0.7000000000000006,-0.6600000000000011 a3.8,3.8 0 0 1 2.04,-0.6200000000000009 c0.4200000000000003,0 0.79,0.1 1.12,0.28 c0.3200000000000005,0.2 0.4900000000000003,0.46 0.4900000000000003,0.8 zm8.16,-0.6300000000000009 a8,8 0 0 0 0.25,-0.6100000000000009 a0.99,0.99 0 0 0 0.06000000000000009,-0.3000000000000003 c0,-0.16000000000000028 -0.12000000000000002,-0.2400000000000002 -0.3600000000000003,-0.2400000000000002 c-0.3000000000000003,0 -0.52,0.14 -0.650000000000001,0.4300000000000003 l-3,6.63 a2.8,2.8 0 0 0 1.17,-0.9600000000000006 c0.4,-0.52 0.77,-1.13 1.09,-1.85 l1.44,-3.1 zM81.86999761581421,16.007001101970673 a10.03,10.03 0 0 1 -5.79,2.01 c-0.8200000000000006,0 -1.47,-0.22000000000000025 -1.96,-0.6600000000000011 c-0.4800000000000003,-0.44000000000000045 -0.7300000000000006,-1 -0.7300000000000006,-1.6700000000000008 a3,3 0 0 1 0.27,-1.2 l5.08,-11.42 a4.91,4.91 0 0 1 2,-2.34 c0.8300000000000006,-0.4700000000000003 1.9,-0.7100000000000006 3.21,-0.7100000000000006 c0.7500000000000009,0 1.33,0.13 1.7400000000000002,0.38000000000000045 c0.4100000000000003,0.26 0.6100000000000009,0.640000000000001 0.6100000000000009,1.1600000000000001 c0,0.17 -0.030000000000000054,0.38000000000000045 -0.1,0.6000000000000006 c-0.06000000000000009,0.2400000000000002 -0.18000000000000022,0.5800000000000006 -0.38000000000000045,1.03 l-1.4100000000000001,3.12 a9.2,9.2 0 0 1 -5.35,5.01 l-1.44,3.22 c-0.1,0.2 -0.15000000000000022,0.3600000000000003 -0.15000000000000022,0.5 c0,0.2 0.15000000000000022,0.3400000000000006 0.45,0.45 c0.3000000000000003,0.1 0.5800000000000006,0.15000000000000022 0.8700000000000009,0.15000000000000022 c0.3900000000000005,0 0.79,-0.08000000000000011 1.2,-0.25 a6.58,6.58 0 0 0 2.3,-1.53 c0.18000000000000022,-0.2 0.3500000000000003,-0.38000000000000045 0.4900000000000003,-0.5700000000000006 c-0.05000000000000008,0.1 -0.26,0.52 -0.4800000000000003,1.04 a4.6,4.6 0 0 0 -0.4300000000000003,1.6700000000000008 zm22.29,-2.19 c-0.2,0.46 -0.5800000000000006,0.9400000000000006 -1.12,1.44 c-0.53,0.5 -1.15,0.9500000000000006 -1.84,1.36 c-0.7000000000000006,0.4 -1.4300000000000002,0.7400000000000009 -2.19,1 a6.3,6.3 0 0 1 -2.1,0.4 c-0.5700000000000006,0 -1,-0.14 -1.3,-0.4300000000000003 a1.62,1.62 0 0 1 -0.4300000000000003,-1.2 c0,-0.21000000000000021 0.05000000000000008,-0.46 0.14,-0.760000000000001 c0.08000000000000011,-0.3000000000000003 0.2,-0.6000000000000006 0.3300000000000005,-0.93 a18.08,18.08 0 0 1 0.9500000000000006,-1.98 a12,12 0 0 0 0.650000000000001,-1.34 c0.1,-0.26 0.14,-0.4300000000000003 0.14,-0.51 c0,-0.07 -0.030000000000000054,-0.12000000000000002 -0.1,-0.16000000000000028 c-0.08000000000000011,-0.040000000000000056 -0.2,-0.1 -0.3500000000000003,-0.2 l-0.77,-0.46 c-0.3000000000000003,0.6300000000000009 -0.6900000000000014,1.08 -1.1400000000000001,1.37 c-0.46,0.2900000000000003 -1.05,0.4300000000000003 -1.77,0.4300000000000003 a7.83,7.83 0 0 1 -1.27,-0.12000000000000002 c-0.54,1.4 -1.07,2.5 -1.58,3.34 a7.1,7.1 0 0 1 -1.6,1.9 c-0.55,0.4300000000000003 -1.1400000000000001,0.7100000000000006 -1.7600000000000002,0.8500000000000006 c-0.6300000000000009,0.13 -1.3,0.2 -2.04,0.2 c-1.17,0 -1.99,-0.17 -2.45,-0.52 c-0.46,-0.3400000000000006 -0.7000000000000006,-0.8 -0.7000000000000006,-1.4 c0,-0.3000000000000003 0.06000000000000009,-0.6300000000000009 0.16000000000000028,-0.98 c0.1,-0.3600000000000003 0.25,-0.7400000000000009 0.44000000000000045,-1.1600000000000001 l1.1,-2.4 c0.3400000000000006,-0.7200000000000006 0.7000000000000006,-1.32 1.05,-1.82 c0.3600000000000003,-0.5 0.7400000000000009,-0.9 1.13,-1.19 c0.4,-0.3000000000000003 0.8,-0.5 1.22,-0.6300000000000009 a4.57,4.57 0 0 1 1.96,-0.18000000000000022 c0.14,0 0.26,0.020000000000000028 0.3600000000000003,0.06000000000000009 c0.5800000000000006,-0.53 1.29,-0.8 2.14,-0.8 c0.54,0 0.9400000000000006,0.12000000000000002 1.2,0.3400000000000006 c0.25,0.22000000000000025 0.38000000000000045,0.54 0.38000000000000045,0.9600000000000006 c0,0.45 -0.14,0.98 -0.4300000000000003,1.6 a2.67,2.67 0 0 0 0.4300000000000003,0.06000000000000009 c0.26,0 0.5,-0.08000000000000011 0.7200000000000006,-0.23 a3.6,3.6 0 0 0 1.12,-1.3900000000000001 l0.4200000000000003,-0.8800000000000009 l4.9,2.95 c0.23,0.15000000000000022 0.4,0.3000000000000003 0.5,0.4700000000000003 c0.11000000000000011,0.17 0.16000000000000028,0.3200000000000005 0.16000000000000028,0.44000000000000045 c0,0.2 -0.07,0.45 -0.21000000000000021,0.760000000000001 c-0.15000000000000022,0.31000000000000044 -0.31000000000000044,0.650000000000001 -0.5,1 c-0.18000000000000022,0.37000000000000044 -0.3400000000000006,0.7300000000000006 -0.4900000000000003,1.09 c-0.14,0.3600000000000003 -0.21000000000000021,0.6700000000000012 -0.21000000000000021,0.92 c0,0.23 0.13,0.3400000000000006 0.38000000000000045,0.3400000000000006 c0.27,0 0.5900000000000006,-0.09000000000000018 0.9500000000000006,-0.25 a6.91,6.91 0 0 0 2.05,-1.47 c0.2900000000000003,-0.3000000000000003 0.5,-0.5700000000000006 0.6300000000000009,-0.8300000000000006 l0.7400000000000009,0.9400000000000006 zm-15.34,-3.05 a0.8200000000000006,0.8200000000000006 0 0 1 -0.3400000000000006,-0.4200000000000003 a1.81,1.81 0 0 1 -0.08000000000000011,-0.92 c-0.2,0.08000000000000011 -0.3500000000000003,0.2 -0.45,0.3500000000000003 c-0.1,0.15000000000000022 -0.23,0.4 -0.37000000000000044,0.7500000000000009 l-2.21,5.04 a1.2,1.2 0 0 0 -0.12000000000000002,0.4800000000000003 c0,0.3000000000000003 0.13,0.46 0.4,0.46 a1.13,1.13 0 0 0 0.9400000000000006,-0.7000000000000006 l2.23,-5.04 zm2.36,-1.08 a1.46,1.46 0 0 0 0.19000000000000025,-0.7000000000000006 a0.78,0.78 0 0 0 -0.09000000000000018,-0.3900000000000005 c-0.05000000000000008,-0.1 -0.15000000000000022,-0.16000000000000028 -0.3000000000000003,-0.16000000000000028 c-0.38000000000000045,0 -0.5700000000000006,0.19000000000000025 -0.5700000000000006,0.56 c0,0.46 0.25,0.7000000000000006 0.77,0.7000000000000006 z" fill="#FFF" id="svg_2"/>
  </g></g></svg>